<svg width="372" height="165" viewBox="0 0 372 165" fill="none" xmlns="http://www.w3.org/2000/svg">
<path d="M61.8864 60.4545V107H52.0455V60.4545H61.8864ZM69.983 107V60.4545H88.6193C92.0436 60.4545 94.8996 60.9621 97.1875 61.9773C99.4754 62.9924 101.195 64.4015 102.347 66.2045C103.498 67.9924 104.074 70.053 104.074 72.3864C104.074 74.2045 103.71 75.803 102.983 77.1818C102.256 78.5455 101.256 79.6667 99.983 80.5455C98.7254 81.4091 97.286 82.0227 95.6648 82.3864V82.8409C97.4375 82.9167 99.0966 83.4167 100.642 84.3409C102.203 85.2652 103.468 86.5606 104.438 88.2273C105.407 89.8788 105.892 91.8485 105.892 94.1364C105.892 96.6061 105.278 98.8106 104.051 100.75C102.839 102.674 101.044 104.197 98.6648 105.318C96.286 106.439 93.3542 107 89.8693 107H69.983ZM79.8239 98.9545H87.8466C90.589 98.9545 92.589 98.4318 93.8466 97.3864C95.1042 96.3258 95.733 94.9167 95.733 93.1591C95.733 91.8712 95.4223 90.7348 94.8011 89.75C94.1799 88.7652 93.2936 87.9924 92.142 87.4318C91.0057 86.8712 89.6496 86.5909 88.0739 86.5909H79.8239V98.9545ZM79.8239 79.9318H87.1193C88.4678 79.9318 89.6648 79.697 90.7102 79.2273C91.7708 78.7424 92.6042 78.0606 93.2102 77.1818C93.8314 76.303 94.142 75.25 94.142 74.0227C94.142 72.3409 93.5436 70.9848 92.3466 69.9545C91.1648 68.9242 89.483 68.4091 87.3011 68.4091H79.8239V79.9318ZM112.295 107V60.4545H130.659C134.174 60.4545 137.174 61.0833 139.659 62.3409C142.159 63.5833 144.061 65.3485 145.364 67.6364C146.682 69.9091 147.341 72.5833 147.341 75.6591C147.341 78.75 146.674 81.4091 145.341 83.6364C144.008 85.8485 142.076 87.5455 139.545 88.7273C137.03 89.9091 133.985 90.5 130.409 90.5H118.114V82.5909H128.818C130.697 82.5909 132.258 82.3333 133.5 81.8182C134.742 81.303 135.667 80.5303 136.273 79.5C136.894 78.4697 137.205 77.1894 137.205 75.6591C137.205 74.1136 136.894 72.8106 136.273 71.75C135.667 70.6894 134.735 69.8864 133.477 69.3409C132.235 68.7803 130.667 68.5 128.773 68.5H122.136V107H112.295ZM137.432 85.8182L149 107H138.136L126.818 85.8182H137.432ZM162.318 107H151.773L167.841 60.4545H180.523L196.568 107H186.023L174.364 71.0909H174L162.318 107ZM161.659 88.7045H186.568V96.3864H161.659V88.7045Z" fill="#BBBBBB"/>
<path d="M202.17 107V60.4545H212.011V79.6591H231.989V60.4545H241.807V107H231.989V87.7727H212.011V107H202.17ZM259.761 60.4545V107H249.92V60.4545H259.761ZM267.858 60.4545H279.994L292.812 91.7273H293.358L306.176 60.4545H318.312V107H308.767V76.7045H308.381L296.335 106.773H289.835L277.79 76.5909H277.403V107H267.858V60.4545Z" fill="#FF6E28"/>
<line x1="271" y1="45.5" x2="330" y2="45.5" stroke="#BBBBBB" stroke-width="5"/>
<line x1="327.5" y1="47.9714" x2="327.5" y2="83.0285" stroke="#BBBBBB" stroke-width="5"/>
<line x1="43.5" y1="83" x2="43.5" y2="122" stroke="#FF6E28" stroke-width="5"/>
<line x1="41" y1="119.5" x2="100" y2="119.5" stroke="#FF6E28" stroke-width="5"/>
<path d="M42 41H330V39H42V41ZM331 42V123H333V42H331ZM330 124H42V126H330V124ZM41 123V42H39V123H41ZM42 124C41.4477 124 41 123.552 41 123H39C39 124.657 40.3431 126 42 126V124ZM331 123C331 123.552 330.552 124 330 124V126C331.657 126 333 124.657 333 123H331ZM330 41C330.552 41 331 41.4477 331 42H333C333 40.3432 331.657 39 330 39V41ZM42 39C40.3431 39 39 40.3431 39 42H41C41 41.4477 41.4477 41 42 41V39Z" fill="black" fill-opacity="0.1"/>
</svg>
