<svg width="1013" height="915" viewBox="0 0 1013 915" fill="none" xmlns="http://www.w3.org/2000/svg">
<rect width="1013" height="915" fill="white"/>
<path d="M170.172 67.8015H170.023C168.75 67.8015 167.719 66.77 167.719 65.4975C167.719 64.2251 168.75 63.1935 170.023 63.1935H170.172M170.172 77.0174H170.023C168.75 77.0174 167.719 75.9859 167.719 74.7134C167.719 73.441 168.75 72.4095 170.023 72.4095H170.172M170.172 86.2334H170.023C168.75 86.2334 167.719 85.2018 167.719 83.9294C167.719 82.6569 168.75 81.6254 170.023 81.6254H170.172M157.906 67.8015H157.757C156.485 67.8015 155.453 66.77 155.453 65.4975C155.453 64.2251 156.485 63.1935 157.757 63.1935H157.906M157.906 77.0174H157.757C156.485 77.0174 155.453 75.9859 155.453 74.7134C155.453 73.441 156.485 72.4095 157.757 72.4095H157.906M157.906 86.2334H157.757C156.485 86.2334 155.453 85.2018 155.453 83.9294C155.453 82.6569 156.485 81.6254 157.757 81.6254H157.906M171.399 53.9776C170.721 53.9776 170.172 54.5268 170.172 55.2042V57.359C170.172 58.0364 169.623 58.5856 168.946 58.5856C168.268 58.5856 167.719 58.0364 167.719 57.359V56.2816C167.719 55.0091 166.687 53.9776 165.415 53.9776H160.21C158.938 53.9776 157.906 55.0091 157.906 56.2816V57.359C157.906 58.0364 157.357 58.5856 156.68 58.5856C156.002 58.5856 155.453 58.0364 155.453 57.359V55.2042C155.453 54.5268 154.904 53.9776 154.227 53.9776C153.549 53.9776 153 54.5268 153 55.2042V94.2227C153 94.9001 153.549 95.4493 154.227 95.4493C154.904 95.4493 155.453 94.9001 155.453 94.2227V92.0679C155.453 91.3905 156.002 90.8413 156.68 90.8413C157.357 90.8413 157.906 91.3905 157.906 92.0679V93.1453C157.906 94.4178 158.938 95.4493 160.21 95.4493H165.415C166.687 95.4493 167.719 94.4178 167.719 93.1453V92.0679C167.719 91.3905 168.268 90.8413 168.946 90.8413C169.623 90.8413 170.172 91.3905 170.172 92.0679V94.2227C170.172 94.9001 170.721 95.4493 171.399 95.4493C172.076 95.4493 172.625 94.9001 172.625 94.2227V55.2042C172.625 54.5268 172.076 53.9776 171.399 53.9776Z" fill="black"/>
<path d="M170.172 106.033H167.719V101.425H170.172M170.172 115.249H167.719V110.641H170.172M170.172 124.465H167.719V119.857H170.172M157.906 106.033H155.453V101.425H157.906M157.906 115.249H155.453V110.641H157.906M157.906 124.465H155.453V119.857H157.906M170.172 92.2093V96.8173H167.719V92.2093H157.906V96.8173H155.453V92.2093H153V133.681H155.453V129.073H157.906V133.681H167.719V129.073H170.172V133.681H172.625V92.2093H170.172Z" fill="black"/>
<path d="M170.172 144.913H170.023C168.75 144.913 167.719 143.881 167.719 142.609C167.719 141.337 168.75 140.305 170.023 140.305H170.172M170.172 154.129H170.023C168.75 154.129 167.719 153.097 167.719 151.825C167.719 150.552 168.75 149.521 170.023 149.521H170.172M170.172 163.345H170.023C168.75 163.345 167.719 162.313 167.719 161.041C167.719 159.768 168.75 158.737 170.023 158.737H170.172M157.906 144.913H157.757C156.485 144.913 155.453 143.881 155.453 142.609C155.453 141.337 156.485 140.305 157.757 140.305H157.906M157.906 154.129H157.757C156.485 154.129 155.453 153.097 155.453 151.825C155.453 150.552 156.485 149.521 157.757 149.521H157.906M157.906 163.345H157.757C156.485 163.345 155.453 162.313 155.453 161.041C155.453 159.768 156.485 158.737 157.757 158.737H157.906M171.399 131.089C170.721 131.089 170.172 131.638 170.172 132.316V134.47C170.172 135.148 169.623 135.697 168.946 135.697C168.268 135.697 167.719 135.148 167.719 134.47V133.393C167.719 132.121 166.687 131.089 165.415 131.089H160.21C158.938 131.089 157.906 132.121 157.906 133.393V134.47C157.906 135.148 157.357 135.697 156.68 135.697C156.002 135.697 155.453 135.148 155.453 134.47V132.316C155.453 131.638 154.904 131.089 154.227 131.089C153.549 131.089 153 131.638 153 132.316V171.334C153 172.012 153.549 172.561 154.227 172.561C154.904 172.561 155.453 172.012 155.453 171.334V169.179C155.453 168.502 156.002 167.953 156.68 167.953C157.357 167.953 157.906 168.502 157.906 169.179V170.257C157.906 171.529 158.938 172.561 160.21 172.561H165.415C166.687 172.561 167.719 171.529 167.719 170.257V169.179C167.719 168.502 168.268 167.953 168.946 167.953C169.623 167.953 170.172 168.502 170.172 169.179V171.334C170.172 172.012 170.721 172.561 171.399 172.561C172.076 172.561 172.625 172.012 172.625 171.334V132.316C172.625 131.638 172.076 131.089 171.399 131.089Z" fill="black"/>
<path d="M259.547 67.8015H259.398C258.125 67.8015 257.094 66.77 257.094 65.4975C257.094 64.2251 258.125 63.1935 259.398 63.1935H259.547M259.547 77.0174H259.398C258.125 77.0174 257.094 75.9859 257.094 74.7134C257.094 73.441 258.125 72.4095 259.398 72.4095H259.547M259.547 86.2334H259.398C258.125 86.2334 257.094 85.2018 257.094 83.9294C257.094 82.6569 258.125 81.6254 259.398 81.6254H259.547M247.281 67.8015H247.132C245.859 67.8015 244.828 66.77 244.828 65.4975C244.828 64.2251 245.859 63.1935 247.132 63.1935H247.281M247.281 77.0174H247.132C245.859 77.0174 244.828 75.9859 244.828 74.7134C244.828 73.441 245.859 72.4095 247.132 72.4095H247.281M247.281 86.2334H247.132C245.859 86.2334 244.828 85.2018 244.828 83.9294C244.828 82.6569 245.859 81.6254 247.132 81.6254H247.281M260.773 53.9776C260.096 53.9776 259.547 54.5268 259.547 55.2042V57.359C259.547 58.0364 258.998 58.5856 258.32 58.5856C257.643 58.5856 257.094 58.0364 257.094 57.359V56.2816C257.094 55.0091 256.062 53.9776 254.79 53.9776H249.585C248.313 53.9776 247.281 55.0091 247.281 56.2816V57.359C247.281 58.0364 246.732 58.5856 246.054 58.5856C245.377 58.5856 244.828 58.0364 244.828 57.359V55.2042C244.828 54.5268 244.279 53.9776 243.601 53.9776C242.924 53.9776 242.375 54.5268 242.375 55.2042V94.2227C242.375 94.9001 242.924 95.4493 243.601 95.4493C244.279 95.4493 244.828 94.9001 244.828 94.2227V92.0679C244.828 91.3905 245.377 90.8413 246.054 90.8413C246.732 90.8413 247.281 91.3905 247.281 92.0679V93.1453C247.281 94.4178 248.313 95.4493 249.585 95.4493H254.79C256.062 95.4493 257.094 94.4178 257.094 93.1453V92.0679C257.094 91.3905 257.643 90.8413 258.32 90.8413C258.998 90.8413 259.547 91.3905 259.547 92.0679V94.2227C259.547 94.9001 260.096 95.4493 260.773 95.4493C261.451 95.4493 262 94.9001 262 94.2227V55.2042C262 54.5268 261.451 53.9776 260.773 53.9776Z" fill="black"/>
<path d="M259.547 106.102H257.094V101.494H259.547M259.547 115.318H257.094V110.71H259.547M259.547 124.534H257.094V119.926H259.547M247.281 106.102H244.828V101.494H247.281M247.281 115.318H244.828V110.71H247.281M247.281 124.534H244.828V119.926H247.281M259.547 92.2777V96.8857H257.094V92.2777H247.281V96.8857H244.828V92.2777H242.375V133.749H244.828V129.141H247.281V133.749H257.094V129.141H259.547V133.749H262V92.2777H259.547Z" fill="black"/>
<path d="M259.547 144.913H259.398C258.125 144.913 257.094 143.881 257.094 142.609C257.094 141.337 258.125 140.305 259.398 140.305H259.547M259.547 154.129H259.398C258.125 154.129 257.094 153.097 257.094 151.825C257.094 150.552 258.125 149.521 259.398 149.521H259.547M259.547 163.345H259.398C258.125 163.345 257.094 162.313 257.094 161.041C257.094 159.768 258.125 158.737 259.398 158.737H259.547M247.281 144.913H247.132C245.859 144.913 244.828 143.881 244.828 142.609C244.828 141.337 245.859 140.305 247.132 140.305H247.281M247.281 154.129H247.132C245.859 154.129 244.828 153.097 244.828 151.825C244.828 150.552 245.859 149.521 247.132 149.521H247.281M247.281 163.345H247.132C245.859 163.345 244.828 162.313 244.828 161.041C244.828 159.768 245.859 158.737 247.132 158.737H247.281M260.773 131.089C260.096 131.089 259.547 131.638 259.547 132.316V134.47C259.547 135.148 258.998 135.697 258.32 135.697C257.643 135.697 257.094 135.148 257.094 134.47V133.393C257.094 132.121 256.062 131.089 254.79 131.089H249.585C248.313 131.089 247.281 132.121 247.281 133.393V134.47C247.281 135.148 246.732 135.697 246.054 135.697C245.377 135.697 244.828 135.148 244.828 134.47V132.316C244.828 131.638 244.279 131.089 243.601 131.089C242.924 131.089 242.375 131.638 242.375 132.316V171.334C242.375 172.012 242.924 172.561 243.601 172.561C244.279 172.561 244.828 172.012 244.828 171.334V169.179C244.828 168.502 245.377 167.953 246.054 167.953C246.732 167.953 247.281 168.502 247.281 169.179V170.257C247.281 171.529 248.313 172.561 249.585 172.561H254.79C256.062 172.561 257.094 171.529 257.094 170.257V169.179C257.094 168.502 257.643 167.953 258.32 167.953C258.998 167.953 259.547 168.502 259.547 169.179V171.334C259.547 172.012 260.096 172.561 260.773 172.561C261.451 172.561 262 172.012 262 171.334V132.316C262 131.638 261.451 131.089 260.773 131.089Z" fill="black"/>
<path d="M171.491 171.088L200.698 180.797C204.753 182.145 209.134 182.159 213.197 180.836L243.145 171.088" stroke="black" stroke-width="4" stroke-linecap="round"/>
<path d="M154.541 182.872L202.247 199.633C206.643 201.177 211.44 201.139 215.81 199.524L260.866 182.872" stroke="black" stroke-width="4"/>
<path d="M260.866 183.609V165.681V148.255" stroke="black" stroke-width="2" stroke-linecap="round"/>
<path d="M154.541 183.609L154.15 166.802L153.77 150.465" stroke="black" stroke-width="2" stroke-linecap="round"/>
<path d="M311.85 163.65C311.85 167.55 313.75 170.95 317.55 173.85C321.35 176.75 326.25 178.2 332.25 178.2C338.25 178.2 343 176.75 346.5 173.85C350 170.95 351.75 167.1 351.75 162.3C351.75 156.2 348.1 151.15 340.8 147.15L318.6 135.3C305.8 128.4 299.4 118.55 299.4 105.75C299.4 97.55 302.4 90.5 308.4 84.6C314.4 78.7 323.35 75.75 335.25 75.75C343.25 75.75 350.85 77.35 358.05 80.55C365.25 83.75 368.85 87.55 368.85 91.95C368.85 93.65 368.3 95.6 367.2 97.8L360 111.6L354.75 109.95V97.35C354.75 92.85 352.75 89.3 348.75 86.7C344.85 84.1 340.15 82.8 334.65 82.8C329.25 82.8 325.1 84.4 322.2 87.6C319.3 90.8 317.85 94.45 317.85 98.55C317.85 106.75 321.55 112.8 328.95 116.7L348 126.75C362.5 134.35 369.75 144.35 369.75 156.75C369.75 166.15 366.2 173.25 359.1 178.05C352.1 182.85 343.2 185.25 332.4 185.25C324.3 185.25 316.5 183.65 309 180.45C301.5 177.25 297.75 173.45 297.75 169.05C297.75 167.35 298.3 165.4 299.4 163.2L306.6 149.4L311.85 151.05V163.65ZM382.397 116.25V110.1H394.697V88.5H417.197V110.1H434.147V116.25H417.197V166.35C417.197 169.05 417.847 171.2 419.147 172.8C420.447 174.3 422.447 175.05 425.147 175.05C427.847 175.05 430.947 173.6 434.447 170.7L437.147 174.3C429.147 181.6 421.147 185.25 413.147 185.25C400.847 185.25 394.697 177.9 394.697 163.2V116.25H382.397ZM499.071 105.75C502.071 105.75 503.571 108.6 503.571 114.3V166.35C503.571 169.05 504.221 171.2 505.521 172.8C506.821 174.3 508.821 175.05 511.521 175.05C514.221 175.05 517.321 173.6 520.821 170.7L523.521 174.3C515.521 181.6 507.521 185.25 499.521 185.25C487.221 185.25 481.071 177.9 481.071 163.2V121.05C476.371 122.95 470.671 124.25 463.971 124.95C463.171 134.15 460.521 143.35 456.021 152.55L449.871 150.75C452.671 143.65 454.171 135.2 454.371 125.4C450.571 125.4 447.471 124.3 445.071 122.1C442.771 119.9 441.621 117.2 441.621 114C441.621 110.7 442.721 107.95 444.921 105.75C447.221 103.45 449.971 102.3 453.171 102.3C456.471 102.3 459.221 103.45 461.421 105.75C463.621 108.05 464.721 111 464.721 114.6H467.571C475.471 114.6 483.871 112.4 492.771 108C495.671 106.5 497.771 105.75 499.071 105.75ZM561.641 148.35C568.141 147.75 573.141 145.3 576.641 141C580.241 136.6 582.041 132.2 582.041 127.8C582.041 123.3 581.041 119.85 579.041 117.45C577.141 115.05 574.191 113.85 570.191 113.85C566.291 113.85 562.541 116.65 558.941 122.25C555.341 127.85 553.541 135.35 553.541 144.75C553.541 154.15 555.241 161.7 558.641 167.4C562.041 173.1 566.891 175.95 573.191 175.95C582.791 175.95 590.941 172.2 597.641 164.7L601.841 167.4C598.441 172.8 593.941 177.15 588.341 180.45C582.741 183.65 576.441 185.25 569.441 185.25C557.541 185.25 548.041 181.35 540.941 173.55C533.841 165.65 530.291 156.15 530.291 145.05C530.291 133.95 534.041 124.65 541.541 117.15C549.141 109.55 559.641 105.75 573.041 105.75C581.841 105.75 588.741 107.8 593.741 111.9C598.741 116 601.241 121.2 601.241 127.5C601.241 133.8 598.441 139.65 592.841 145.05C587.341 150.35 580.041 153 570.941 153C567.841 153 564.841 152.65 561.941 151.95L561.641 148.35ZM699.593 108V166.35C699.593 169.05 700.243 171.2 701.543 172.8C702.843 174.3 704.843 175.05 707.543 175.05C710.243 175.05 713.343 173.6 716.843 170.7L719.543 174.3C711.543 181.6 703.543 185.25 695.543 185.25C686.043 185.25 680.193 180.8 677.993 171.9C672.793 180.8 665.143 185.25 655.043 185.25C643.543 185.25 634.793 181.55 628.793 174.15C622.793 166.65 619.793 157.15 619.793 145.65C619.793 134.05 622.993 124.5 629.393 117C635.893 109.5 644.943 105.75 656.543 105.75C665.443 105.75 672.293 109.3 677.093 116.4V108H699.593ZM647.243 122.7C644.443 128.3 643.043 135.9 643.043 145.5C643.043 155.1 644.443 162.7 647.243 168.3C650.043 173.9 654.293 176.7 659.993 176.7C665.793 176.7 670.193 173.9 673.193 168.3C676.293 162.6 677.843 155 677.843 145.5C677.843 136 676.293 128.45 673.193 122.85C670.193 117.15 665.793 114.3 659.993 114.3C654.293 114.3 650.043 117.1 647.243 122.7ZM721.037 110.7C725.337 108.9 729.937 108 734.837 108C739.837 108 743.937 108.6 747.137 109.8C750.437 111 753.837 112.9 757.337 115.5C760.937 111.9 764.587 109.4 768.287 108C772.087 106.5 776.537 105.75 781.637 105.75C791.837 105.75 798.637 109.65 802.037 117.45C805.937 113.15 809.837 110.15 813.737 108.45C817.737 106.65 822.887 105.75 829.187 105.75C835.587 105.75 840.737 107.75 844.637 111.75C848.637 115.65 850.637 121 850.637 127.8V166.35C850.637 169.05 851.287 171.2 852.587 172.8C853.887 174.3 855.887 175.05 858.587 175.05C861.287 175.05 864.387 173.6 867.887 170.7L870.587 174.3C862.587 181.6 854.587 185.25 846.587 185.25C834.287 185.25 828.137 177.9 828.137 163.2V124.65C828.137 121.55 827.237 119.15 825.437 117.45C823.637 115.75 821.137 114.9 817.937 114.9C814.837 114.9 811.737 116.25 808.637 118.95C805.637 121.65 804.137 125.15 804.137 129.45V183H781.637V124.65C781.637 121.55 780.737 119.15 778.937 117.45C777.137 115.75 774.637 114.9 771.437 114.9C768.337 114.9 765.237 116.25 762.137 118.95C759.137 121.65 757.637 125.15 757.637 129.45V183H735.137V114C730.637 114 726.637 114.75 723.137 116.25L721.037 110.7Z" fill="black"/>
<rect width="745" height="172" transform="translate(129 244)" fill="#0A0A0A"/>
<path d="M164.172 269.802H164.023C162.75 269.802 161.719 268.77 161.719 267.498C161.719 266.225 162.75 265.194 164.023 265.194H164.172M164.172 279.017H164.023C162.75 279.017 161.719 277.986 161.719 276.713C161.719 275.441 162.75 274.409 164.023 274.409H164.172M164.172 288.233H164.023C162.75 288.233 161.719 287.202 161.719 285.929C161.719 284.657 162.75 283.625 164.023 283.625H164.172M151.906 269.802H151.757C150.485 269.802 149.453 268.77 149.453 267.498C149.453 266.225 150.485 265.194 151.757 265.194H151.906M151.906 279.017H151.757C150.485 279.017 149.453 277.986 149.453 276.713C149.453 275.441 150.485 274.409 151.757 274.409H151.906M151.906 288.233H151.757C150.485 288.233 149.453 287.202 149.453 285.929C149.453 284.657 150.485 283.625 151.757 283.625H151.906M165.399 255.978C164.721 255.978 164.172 256.527 164.172 257.204V259.359C164.172 260.036 163.623 260.586 162.946 260.586C162.268 260.586 161.719 260.036 161.719 259.359V258.282C161.719 257.009 160.687 255.978 159.415 255.978H154.21C152.938 255.978 151.906 257.009 151.906 258.282V259.359C151.906 260.036 151.357 260.586 150.68 260.586C150.002 260.586 149.453 260.036 149.453 259.359V257.204C149.453 256.527 148.904 255.978 148.227 255.978C147.549 255.978 147 256.527 147 257.204V296.223C147 296.9 147.549 297.449 148.227 297.449C148.904 297.449 149.453 296.9 149.453 296.223V294.068C149.453 293.39 150.002 292.841 150.68 292.841C151.357 292.841 151.906 293.39 151.906 294.068V295.145C151.906 296.418 152.938 297.449 154.21 297.449H159.415C160.687 297.449 161.719 296.418 161.719 295.145V294.068C161.719 293.39 162.268 292.841 162.946 292.841C163.623 292.841 164.172 293.39 164.172 294.068V296.223C164.172 296.9 164.721 297.449 165.399 297.449C166.076 297.449 166.625 296.9 166.625 296.223V257.204C166.625 256.527 166.076 255.978 165.399 255.978Z" fill="white"/>
<path d="M164.172 308.033H161.719V303.425H164.172M164.172 317.249H161.719V312.641H164.172M164.172 326.465H161.719V321.857H164.172M151.906 308.033H149.453V303.425H151.906M151.906 317.249H149.453V312.641H151.906M151.906 326.465H149.453V321.857H151.906M164.172 294.209V298.817H161.719V294.209H151.906V298.817H149.453V294.209H147V335.681H149.453V331.073H151.906V335.681H161.719V331.073H164.172V335.681H166.625V294.209H164.172Z" fill="white"/>
<path d="M164.172 346.913H164.023C162.75 346.913 161.719 345.881 161.719 344.609C161.719 343.337 162.75 342.305 164.023 342.305H164.172M164.172 356.129H164.023C162.75 356.129 161.719 355.097 161.719 353.825C161.719 352.552 162.75 351.521 164.023 351.521H164.172M164.172 365.345H164.023C162.75 365.345 161.719 364.313 161.719 363.041C161.719 361.768 162.75 360.737 164.023 360.737H164.172M151.906 346.913H151.757C150.485 346.913 149.453 345.881 149.453 344.609C149.453 343.337 150.485 342.305 151.757 342.305H151.906M151.906 356.129H151.757C150.485 356.129 149.453 355.097 149.453 353.825C149.453 352.552 150.485 351.521 151.757 351.521H151.906M151.906 365.345H151.757C150.485 365.345 149.453 364.313 149.453 363.041C149.453 361.768 150.485 360.737 151.757 360.737H151.906M165.399 333.089C164.721 333.089 164.172 333.638 164.172 334.316V336.47C164.172 337.148 163.623 337.697 162.946 337.697C162.268 337.697 161.719 337.148 161.719 336.47V335.393C161.719 334.121 160.687 333.089 159.415 333.089H154.21C152.938 333.089 151.906 334.121 151.906 335.393V336.47C151.906 337.148 151.357 337.697 150.68 337.697C150.002 337.697 149.453 337.148 149.453 336.47V334.316C149.453 333.638 148.904 333.089 148.227 333.089C147.549 333.089 147 333.638 147 334.316V373.334C147 374.012 147.549 374.561 148.227 374.561C148.904 374.561 149.453 374.012 149.453 373.334V371.179C149.453 370.502 150.002 369.953 150.68 369.953C151.357 369.953 151.906 370.502 151.906 371.179V372.257C151.906 373.529 152.938 374.561 154.21 374.561H159.415C160.687 374.561 161.719 373.529 161.719 372.257V371.179C161.719 370.502 162.268 369.953 162.946 369.953C163.623 369.953 164.172 370.502 164.172 371.179V373.334C164.172 374.012 164.721 374.561 165.399 374.561C166.076 374.561 166.625 374.012 166.625 373.334V334.316C166.625 333.638 166.076 333.089 165.399 333.089Z" fill="white"/>
<path d="M253.547 269.802H253.398C252.125 269.802 251.094 268.77 251.094 267.498C251.094 266.225 252.125 265.194 253.398 265.194H253.547M253.547 279.017H253.398C252.125 279.017 251.094 277.986 251.094 276.713C251.094 275.441 252.125 274.409 253.398 274.409H253.547M253.547 288.233H253.398C252.125 288.233 251.094 287.202 251.094 285.929C251.094 284.657 252.125 283.625 253.398 283.625H253.547M241.281 269.802H241.132C239.859 269.802 238.828 268.77 238.828 267.498C238.828 266.225 239.859 265.194 241.132 265.194H241.281M241.281 279.017H241.132C239.859 279.017 238.828 277.986 238.828 276.713C238.828 275.441 239.859 274.409 241.132 274.409H241.281M241.281 288.233H241.132C239.859 288.233 238.828 287.202 238.828 285.929C238.828 284.657 239.859 283.625 241.132 283.625H241.281M254.773 255.978C254.096 255.978 253.547 256.527 253.547 257.204V259.359C253.547 260.036 252.998 260.586 252.32 260.586C251.643 260.586 251.094 260.036 251.094 259.359V258.282C251.094 257.009 250.062 255.978 248.79 255.978H243.585C242.313 255.978 241.281 257.009 241.281 258.282V259.359C241.281 260.036 240.732 260.586 240.054 260.586C239.377 260.586 238.828 260.036 238.828 259.359V257.204C238.828 256.527 238.279 255.978 237.601 255.978C236.924 255.978 236.375 256.527 236.375 257.204V296.223C236.375 296.9 236.924 297.449 237.601 297.449C238.279 297.449 238.828 296.9 238.828 296.223V294.068C238.828 293.39 239.377 292.841 240.054 292.841C240.732 292.841 241.281 293.39 241.281 294.068V295.145C241.281 296.418 242.313 297.449 243.585 297.449H248.79C250.062 297.449 251.094 296.418 251.094 295.145V294.068C251.094 293.39 251.643 292.841 252.32 292.841C252.998 292.841 253.547 293.39 253.547 294.068V296.223C253.547 296.9 254.096 297.449 254.773 297.449C255.451 297.449 256 296.9 256 296.223V257.204C256 256.527 255.451 255.978 254.773 255.978Z" fill="white"/>
<path d="M253.547 308.102H251.094V303.494H253.547M253.547 317.318H251.094V312.71H253.547M253.547 326.534H251.094V321.926H253.547M241.281 308.102H238.828V303.494H241.281M241.281 317.318H238.828V312.71H241.281M241.281 326.534H238.828V321.926H241.281M253.547 294.278V298.886H251.094V294.278H241.281V298.886H238.828V294.278H236.375V335.749H238.828V331.141H241.281V335.749H251.094V331.141H253.547V335.749H256V294.278H253.547Z" fill="white"/>
<path d="M253.547 346.913H253.398C252.125 346.913 251.094 345.881 251.094 344.609C251.094 343.337 252.125 342.305 253.398 342.305H253.547M253.547 356.129H253.398C252.125 356.129 251.094 355.097 251.094 353.825C251.094 352.552 252.125 351.521 253.398 351.521H253.547M253.547 365.345H253.398C252.125 365.345 251.094 364.313 251.094 363.041C251.094 361.768 252.125 360.737 253.398 360.737H253.547M241.281 346.913H241.132C239.859 346.913 238.828 345.881 238.828 344.609C238.828 343.337 239.859 342.305 241.132 342.305H241.281M241.281 356.129H241.132C239.859 356.129 238.828 355.097 238.828 353.825C238.828 352.552 239.859 351.521 241.132 351.521H241.281M241.281 365.345H241.132C239.859 365.345 238.828 364.313 238.828 363.041C238.828 361.768 239.859 360.737 241.132 360.737H241.281M254.773 333.089C254.096 333.089 253.547 333.638 253.547 334.316V336.47C253.547 337.148 252.998 337.697 252.32 337.697C251.643 337.697 251.094 337.148 251.094 336.47V335.393C251.094 334.121 250.062 333.089 248.79 333.089H243.585C242.313 333.089 241.281 334.121 241.281 335.393V336.47C241.281 337.148 240.732 337.697 240.054 337.697C239.377 337.697 238.828 337.148 238.828 336.47V334.316C238.828 333.638 238.279 333.089 237.601 333.089C236.924 333.089 236.375 333.638 236.375 334.316V373.334C236.375 374.012 236.924 374.561 237.601 374.561C238.279 374.561 238.828 374.012 238.828 373.334V371.179C238.828 370.502 239.377 369.953 240.054 369.953C240.732 369.953 241.281 370.502 241.281 371.179V372.257C241.281 373.529 242.313 374.561 243.585 374.561H248.79C250.062 374.561 251.094 373.529 251.094 372.257V371.179C251.094 370.502 251.643 369.953 252.32 369.953C252.998 369.953 253.547 370.502 253.547 371.179V373.334C253.547 374.012 254.096 374.561 254.773 374.561C255.451 374.561 256 374.012 256 373.334V334.316C256 333.638 255.451 333.089 254.773 333.089Z" fill="white"/>
<path d="M165.491 373.088L194.698 382.797C198.753 384.145 203.134 384.159 207.197 382.836L237.145 373.088" stroke="#FFFDFD" stroke-width="4" stroke-linecap="round"/>
<path d="M148.541 384.872L196.247 401.633C200.643 403.177 205.44 403.139 209.81 401.524L254.866 384.872" stroke="#FFFDFD" stroke-width="4"/>
<path d="M254.866 385.609V367.681V350.255" stroke="#FFFDFD" stroke-width="2" stroke-linecap="round"/>
<path d="M148.541 385.609L148.15 368.802L147.77 352.465" stroke="#FFFDFD" stroke-width="2" stroke-linecap="round"/>
<path d="M305.85 365.65C305.85 369.55 307.75 372.95 311.55 375.85C315.35 378.75 320.25 380.2 326.25 380.2C332.25 380.2 337 378.75 340.5 375.85C344 372.95 345.75 369.1 345.75 364.3C345.75 358.2 342.1 353.15 334.8 349.15L312.6 337.3C299.8 330.4 293.4 320.55 293.4 307.75C293.4 299.55 296.4 292.5 302.4 286.6C308.4 280.7 317.35 277.75 329.25 277.75C337.25 277.75 344.85 279.35 352.05 282.55C359.25 285.75 362.85 289.55 362.85 293.95C362.85 295.65 362.3 297.6 361.2 299.8L354 313.6L348.75 311.95V299.35C348.75 294.85 346.75 291.3 342.75 288.7C338.85 286.1 334.15 284.8 328.65 284.8C323.25 284.8 319.1 286.4 316.2 289.6C313.3 292.8 311.85 296.45 311.85 300.55C311.85 308.75 315.55 314.8 322.95 318.7L342 328.75C356.5 336.35 363.75 346.35 363.75 358.75C363.75 368.15 360.2 375.25 353.1 380.05C346.1 384.85 337.2 387.25 326.4 387.25C318.3 387.25 310.5 385.65 303 382.45C295.5 379.25 291.75 375.45 291.75 371.05C291.75 369.35 292.3 367.4 293.4 365.2L300.6 351.4L305.85 353.05V365.65ZM376.397 318.25V312.1H388.697V290.5H411.197V312.1H428.147V318.25H411.197V368.35C411.197 371.05 411.847 373.2 413.147 374.8C414.447 376.3 416.447 377.05 419.147 377.05C421.847 377.05 424.947 375.6 428.447 372.7L431.147 376.3C423.147 383.6 415.147 387.25 407.147 387.25C394.847 387.25 388.697 379.9 388.697 365.2V318.25H376.397ZM493.071 307.75C496.071 307.75 497.571 310.6 497.571 316.3V368.35C497.571 371.05 498.221 373.2 499.521 374.8C500.821 376.3 502.821 377.05 505.521 377.05C508.221 377.05 511.321 375.6 514.821 372.7L517.521 376.3C509.521 383.6 501.521 387.25 493.521 387.25C481.221 387.25 475.071 379.9 475.071 365.2V323.05C470.371 324.95 464.671 326.25 457.971 326.95C457.171 336.15 454.521 345.35 450.021 354.55L443.871 352.75C446.671 345.65 448.171 337.2 448.371 327.4C444.571 327.4 441.471 326.3 439.071 324.1C436.771 321.9 435.621 319.2 435.621 316C435.621 312.7 436.721 309.95 438.921 307.75C441.221 305.45 443.971 304.3 447.171 304.3C450.471 304.3 453.221 305.45 455.421 307.75C457.621 310.05 458.721 313 458.721 316.6H461.571C469.471 316.6 477.871 314.4 486.771 310C489.671 308.5 491.771 307.75 493.071 307.75ZM555.641 350.35C562.141 349.75 567.141 347.3 570.641 343C574.241 338.6 576.041 334.2 576.041 329.8C576.041 325.3 575.041 321.85 573.041 319.45C571.141 317.05 568.191 315.85 564.191 315.85C560.291 315.85 556.541 318.65 552.941 324.25C549.341 329.85 547.541 337.35 547.541 346.75C547.541 356.15 549.241 363.7 552.641 369.4C556.041 375.1 560.891 377.95 567.191 377.95C576.791 377.95 584.941 374.2 591.641 366.7L595.841 369.4C592.441 374.8 587.941 379.15 582.341 382.45C576.741 385.65 570.441 387.25 563.441 387.25C551.541 387.25 542.041 383.35 534.941 375.55C527.841 367.65 524.291 358.15 524.291 347.05C524.291 335.95 528.041 326.65 535.541 319.15C543.141 311.55 553.641 307.75 567.041 307.75C575.841 307.75 582.741 309.8 587.741 313.9C592.741 318 595.241 323.2 595.241 329.5C595.241 335.8 592.441 341.65 586.841 347.05C581.341 352.35 574.041 355 564.941 355C561.841 355 558.841 354.65 555.941 353.95L555.641 350.35ZM693.593 310V368.35C693.593 371.05 694.243 373.2 695.543 374.8C696.843 376.3 698.843 377.05 701.543 377.05C704.243 377.05 707.343 375.6 710.843 372.7L713.543 376.3C705.543 383.6 697.543 387.25 689.543 387.25C680.043 387.25 674.193 382.8 671.993 373.9C666.793 382.8 659.143 387.25 649.043 387.25C637.543 387.25 628.793 383.55 622.793 376.15C616.793 368.65 613.793 359.15 613.793 347.65C613.793 336.05 616.993 326.5 623.393 319C629.893 311.5 638.943 307.75 650.543 307.75C659.443 307.75 666.293 311.3 671.093 318.4V310H693.593ZM641.243 324.7C638.443 330.3 637.043 337.9 637.043 347.5C637.043 357.1 638.443 364.7 641.243 370.3C644.043 375.9 648.293 378.7 653.993 378.7C659.793 378.7 664.193 375.9 667.193 370.3C670.293 364.6 671.843 357 671.843 347.5C671.843 338 670.293 330.45 667.193 324.85C664.193 319.15 659.793 316.3 653.993 316.3C648.293 316.3 644.043 319.1 641.243 324.7ZM715.037 312.7C719.337 310.9 723.937 310 728.837 310C733.837 310 737.937 310.6 741.137 311.8C744.437 313 747.837 314.9 751.337 317.5C754.937 313.9 758.587 311.4 762.287 310C766.087 308.5 770.537 307.75 775.637 307.75C785.837 307.75 792.637 311.65 796.037 319.45C799.937 315.15 803.837 312.15 807.737 310.45C811.737 308.65 816.887 307.75 823.187 307.75C829.587 307.75 834.737 309.75 838.637 313.75C842.637 317.65 844.637 323 844.637 329.8V368.35C844.637 371.05 845.287 373.2 846.587 374.8C847.887 376.3 849.887 377.05 852.587 377.05C855.287 377.05 858.387 375.6 861.887 372.7L864.587 376.3C856.587 383.6 848.587 387.25 840.587 387.25C828.287 387.25 822.137 379.9 822.137 365.2V326.65C822.137 323.55 821.237 321.15 819.437 319.45C817.637 317.75 815.137 316.9 811.937 316.9C808.837 316.9 805.737 318.25 802.637 320.95C799.637 323.65 798.137 327.15 798.137 331.45V385H775.637V326.65C775.637 323.55 774.737 321.15 772.937 319.45C771.137 317.75 768.637 316.9 765.437 316.9C762.337 316.9 759.237 318.25 756.137 320.95C753.137 323.65 751.637 327.15 751.637 331.45V385H729.137V316C724.637 316 720.637 316.75 717.137 318.25L715.037 312.7Z" fill="white"/>
<path fill-rule="evenodd" clip-rule="evenodd" d="M161.253 469.824H161.402V465.216H161.253C159.98 465.216 158.949 466.247 158.949 467.52C158.949 468.792 159.98 469.824 161.253 469.824ZM161.253 479.04H161.402V474.432H161.253C159.98 474.432 158.949 475.463 158.949 476.736C158.949 478.008 159.98 479.04 161.253 479.04ZM161.253 488.256H161.402V483.648H161.253C159.98 483.648 158.949 484.679 158.949 485.952C158.949 487.224 159.98 488.256 161.253 488.256ZM148.987 469.824H149.136V465.216H148.987C147.714 465.216 146.683 466.247 146.683 467.52C146.683 468.792 147.714 469.824 148.987 469.824ZM148.987 479.04H149.136V474.432H148.987C147.714 474.432 146.683 475.463 146.683 476.736C146.683 478.008 147.714 479.04 148.987 479.04ZM148.987 488.256H149.136V483.648H148.987C147.714 483.648 146.683 484.679 146.683 485.952C146.683 487.224 147.714 488.256 148.987 488.256ZM161.402 457.227C161.402 456.549 161.951 456 162.628 456C163.306 456 163.855 456.549 163.855 457.227V494.232V496.245V534.338V535.703V571.379L192.558 580.921C196.208 582.135 200.151 582.147 203.808 580.956L233.604 571.258V535.772V534.338V496.245V494.3V457.227C233.604 456.549 234.153 456 234.831 456C235.508 456 236.057 456.549 236.057 457.227V459.381C236.057 460.059 236.607 460.608 237.284 460.608C237.961 460.608 238.511 460.059 238.511 459.381V458.304C238.511 457.032 239.542 456 240.815 456H246.019C247.292 456 248.323 457.032 248.323 458.304V459.381C248.323 460.059 248.872 460.608 249.55 460.608C250.227 460.608 250.776 460.059 250.776 459.381V457.227C250.776 456.549 251.326 456 252.003 456C252.68 456 253.23 456.549 253.23 457.227V494.3V496.245V534.338V535.772V573.357C253.23 573.557 253.181 573.747 253.096 573.915V585.631C253.096 585.97 252.928 586.269 252.67 586.45L252.789 586.771L207.732 603.422C202.925 605.198 197.649 605.241 192.814 603.542L145.108 586.782L145.219 586.464C144.955 586.289 144.779 585.993 144.771 585.652L144.503 574.128C144.332 573.918 144.23 573.649 144.23 573.357V562.372L144 552.509C143.994 552.258 144.081 552.027 144.23 551.848V535.703V534.338V496.245V494.232V457.227C144.23 456.549 144.779 456 145.456 456C146.134 456 146.683 456.549 146.683 457.227V459.381C146.683 460.059 147.232 460.608 147.909 460.608C148.587 460.608 149.136 460.059 149.136 459.381V458.304C149.136 457.032 150.167 456 151.44 456H156.645C157.917 456 158.949 457.032 158.949 458.304V459.381C158.949 460.059 159.498 460.608 160.175 460.608C160.853 460.608 161.402 460.059 161.402 459.381V457.227ZM146.5 574L146.712 583.106L194.14 599.768C198.096 601.158 202.413 601.124 206.346 599.67L251.096 583.132V574.182C250.897 573.964 250.776 573.674 250.776 573.357V571.202C250.776 570.524 250.227 569.975 249.55 569.975C248.872 569.975 248.323 570.524 248.323 571.202V572.279C248.323 573.552 247.292 574.583 246.019 574.583H240.815C239.542 574.583 238.511 573.552 238.511 572.279V571.202C238.511 570.524 237.961 569.975 237.284 569.975C236.607 569.975 236.057 570.524 236.057 571.202V572.028C236.148 572.169 236.222 572.324 236.277 572.491C236.618 573.541 236.044 574.67 234.994 575.012L205.046 584.76C200.576 586.215 195.757 586.2 191.296 584.717L162.09 575.008C161.042 574.659 160.475 573.527 160.823 572.479C160.939 572.129 161.143 571.833 161.402 571.606V571.202C161.402 570.524 160.853 569.975 160.175 569.975C159.498 569.975 158.949 570.524 158.949 571.202V572.279C158.949 573.552 157.917 574.583 156.645 574.583H151.44C150.167 574.583 149.136 573.552 149.136 572.279V571.202C149.136 570.524 148.587 569.975 147.909 569.975C147.232 569.975 146.683 570.524 146.683 571.202V573.357C146.683 573.593 146.616 573.813 146.5 574ZM161.402 531.095V534.338V535.703V536.493C161.402 537.17 160.853 537.719 160.175 537.719C159.498 537.719 158.949 537.17 158.949 536.493V535.703V535.415V531.095H161.402ZM149.136 531.095V535.415V535.703V536.493C149.136 537.17 148.587 537.719 147.909 537.719C147.232 537.719 146.683 537.17 146.683 536.493V535.703V534.338V531.095H149.136ZM146.683 494.232V496.245V498.84H149.136V495.168V494.232V494.09C149.136 493.413 148.587 492.864 147.909 492.864C147.232 492.864 146.683 493.413 146.683 494.09V494.232ZM158.949 494.232V495.168V498.84H161.402V496.245V494.232V494.09C161.402 493.413 160.853 492.864 160.175 492.864C159.498 492.864 158.949 493.413 158.949 494.09V494.232ZM158.949 503.448V508.056H161.402V503.448H158.949ZM158.949 512.664V517.272H161.402V512.664H158.949ZM158.949 521.88V526.487H161.402V521.88H158.949ZM146.683 508.056H149.136V503.448H146.683V508.056ZM146.683 517.272H149.136V512.664H146.683V517.272ZM146.683 526.487H149.136V521.88H146.683V526.487ZM161.402 546.935H161.253C159.98 546.935 158.949 545.904 158.949 544.631C158.949 543.359 159.98 542.327 161.253 542.327H161.402V546.935ZM161.402 556.151H161.253C159.98 556.151 158.949 555.12 158.949 553.847C158.949 552.575 159.98 551.543 161.253 551.543H161.402V556.151ZM161.402 565.367H161.253C159.98 565.367 158.949 564.336 158.949 563.063C158.949 561.791 159.98 560.759 161.253 560.759H161.402V565.367ZM149.136 546.935H148.987C147.714 546.935 146.683 545.904 146.683 544.631C146.683 543.359 147.714 542.327 148.987 542.327H149.136V546.935ZM149.136 556.151H148.987C147.714 556.151 146.683 555.12 146.683 553.847C146.683 552.575 147.714 551.543 148.987 551.543H149.136V556.151ZM149.136 565.367H148.987C147.714 565.367 146.683 564.336 146.683 563.063C146.683 561.791 147.714 560.759 148.987 560.759H149.136V565.367ZM250.627 469.824H250.776V465.216H250.627C249.355 465.216 248.323 466.247 248.323 467.52C248.323 468.792 249.355 469.824 250.627 469.824ZM250.627 479.04H250.776V474.432H250.627C249.355 474.432 248.323 475.463 248.323 476.736C248.323 478.008 249.355 479.04 250.627 479.04ZM250.627 488.256H250.776V483.648H250.627C249.355 483.648 248.323 484.679 248.323 485.952C248.323 487.224 249.355 488.256 250.627 488.256ZM238.361 469.824H238.511V465.216H238.361C237.089 465.216 236.057 466.247 236.057 467.52C236.057 468.792 237.089 469.824 238.361 469.824ZM238.361 479.04H238.511V474.432H238.361C237.089 474.432 236.057 475.463 236.057 476.736C236.057 478.008 237.089 479.04 238.361 479.04ZM238.361 488.256H238.511V483.648H238.361C237.089 483.648 236.057 484.679 236.057 485.952C236.057 487.224 237.089 488.256 238.361 488.256ZM236.057 534.338V535.772V536.493C236.057 537.17 236.607 537.719 237.284 537.719C237.961 537.719 238.511 537.17 238.511 536.493V535.772V535.415V531.164H236.057V534.338ZM248.323 535.415V535.772V536.493C248.323 537.17 248.872 537.719 249.55 537.719C250.227 537.719 250.776 537.17 250.776 536.493V535.772V534.338V531.164H248.323V535.415ZM250.776 494.09V494.3V496.245V498.908H248.323V495.168V494.3V494.09C248.323 493.413 248.872 492.864 249.55 492.864C250.227 492.864 250.776 493.413 250.776 494.09ZM238.511 494.09V494.3V495.168V498.908H236.057V496.245V494.3V494.09C236.057 493.413 236.607 492.864 237.284 492.864C237.961 492.864 238.511 493.413 238.511 494.09ZM248.323 508.124V503.516H250.776V508.124H248.323ZM248.323 517.34V512.732H250.776V517.34H248.323ZM248.323 526.556V521.948H250.776V526.556H248.323ZM238.511 508.124H236.057V503.516H238.511V508.124ZM238.511 517.34H236.057V512.732H238.511V517.34ZM238.511 526.556H236.057V521.948H238.511V526.556ZM250.627 546.935H250.776V542.327H250.627C249.355 542.327 248.323 543.359 248.323 544.631C248.323 545.904 249.355 546.935 250.627 546.935ZM250.627 556.151H250.776V551.543H250.627C249.355 551.543 248.323 552.575 248.323 553.847C248.323 555.12 249.355 556.151 250.627 556.151ZM250.627 565.367H250.776V560.759H250.627C249.355 560.759 248.323 561.791 248.323 563.063C248.323 564.336 249.355 565.367 250.627 565.367ZM238.361 546.935H238.511V542.327H238.361C237.089 542.327 236.057 543.359 236.057 544.631C236.057 545.904 237.089 546.935 238.361 546.935ZM238.361 556.151H238.511V551.543H238.361C237.089 551.543 236.057 552.575 236.057 553.847C236.057 555.12 237.089 556.151 238.361 556.151ZM238.361 565.367H238.511V560.759H238.361C237.089 560.759 236.057 561.791 236.057 563.063C236.057 564.336 237.089 565.367 238.361 565.367Z" fill="url(#paint0_linear_6_2)"/>
<path d="M300.08 566.043C300.08 569.943 301.98 573.343 305.78 576.243C309.58 579.143 314.48 580.593 320.48 580.593C326.48 580.593 331.23 579.143 334.73 576.243C338.23 573.343 339.98 569.493 339.98 564.693C339.98 558.593 336.33 553.543 329.03 549.543L306.83 537.693C294.03 530.793 287.63 520.943 287.63 508.143C287.63 499.943 290.63 492.893 296.63 486.993C302.63 481.093 311.58 478.143 323.48 478.143C331.48 478.143 339.08 479.743 346.28 482.943C353.48 486.143 357.08 489.943 357.08 494.343C357.08 496.043 356.53 497.993 355.43 500.193L348.23 513.993L342.98 512.343V499.743C342.98 495.243 340.98 491.693 336.98 489.093C333.08 486.493 328.38 485.193 322.88 485.193C317.48 485.193 313.33 486.793 310.43 489.993C307.53 493.193 306.08 496.843 306.08 500.943C306.08 509.143 309.78 515.193 317.18 519.093L336.23 529.143C350.73 536.743 357.98 546.743 357.98 559.143C357.98 568.543 354.43 575.643 347.33 580.443C340.33 585.243 331.43 587.643 320.63 587.643C312.53 587.643 304.73 586.043 297.23 582.843C289.73 579.643 285.98 575.843 285.98 571.443C285.98 569.743 286.53 567.793 287.63 565.593L294.83 551.793L300.08 553.443V566.043ZM370.626 518.643V512.493H382.926V490.893H405.426V512.493H422.376V518.643H405.426V568.743C405.426 571.443 406.076 573.593 407.376 575.193C408.676 576.693 410.676 577.443 413.376 577.443C416.076 577.443 419.176 575.993 422.676 573.093L425.376 576.693C417.376 583.993 409.376 587.643 401.376 587.643C389.076 587.643 382.926 580.293 382.926 565.593V518.643H370.626ZM487.301 508.143C490.301 508.143 491.801 510.993 491.801 516.693V568.743C491.801 571.443 492.451 573.593 493.751 575.193C495.051 576.693 497.051 577.443 499.751 577.443C502.451 577.443 505.551 575.993 509.051 573.093L511.751 576.693C503.751 583.993 495.751 587.643 487.751 587.643C475.451 587.643 469.301 580.293 469.301 565.593V523.443C464.601 525.343 458.901 526.643 452.201 527.343C451.401 536.543 448.751 545.743 444.251 554.943L438.101 553.143C440.901 546.043 442.401 537.593 442.601 527.793C438.801 527.793 435.701 526.693 433.301 524.493C431.001 522.293 429.851 519.593 429.851 516.393C429.851 513.093 430.951 510.343 433.151 508.143C435.451 505.843 438.201 504.693 441.401 504.693C444.701 504.693 447.451 505.843 449.651 508.143C451.851 510.443 452.951 513.393 452.951 516.993H455.801C463.701 516.993 472.101 514.793 481.001 510.393C483.901 508.893 486.001 508.143 487.301 508.143ZM549.871 550.743C556.371 550.143 561.371 547.693 564.871 543.393C568.471 538.993 570.271 534.593 570.271 530.193C570.271 525.693 569.271 522.243 567.271 519.843C565.371 517.443 562.421 516.243 558.421 516.243C554.521 516.243 550.771 519.043 547.171 524.643C543.571 530.243 541.771 537.743 541.771 547.143C541.771 556.543 543.471 564.093 546.871 569.793C550.271 575.493 555.121 578.343 561.421 578.343C571.021 578.343 579.171 574.593 585.871 567.093L590.071 569.793C586.671 575.193 582.171 579.543 576.571 582.843C570.971 586.043 564.671 587.643 557.671 587.643C545.771 587.643 536.271 583.743 529.171 575.943C522.071 568.043 518.521 558.543 518.521 547.443C518.521 536.343 522.271 527.043 529.771 519.543C537.371 511.943 547.871 508.143 561.271 508.143C570.071 508.143 576.971 510.193 581.971 514.293C586.971 518.393 589.471 523.593 589.471 529.893C589.471 536.193 586.671 542.043 581.071 547.443C575.571 552.743 568.271 555.393 559.171 555.393C556.071 555.393 553.071 555.043 550.171 554.343L549.871 550.743ZM687.823 510.393V568.743C687.823 571.443 688.473 573.593 689.773 575.193C691.073 576.693 693.073 577.443 695.773 577.443C698.473 577.443 701.573 575.993 705.073 573.093L707.773 576.693C699.773 583.993 691.773 587.643 683.773 587.643C674.273 587.643 668.423 583.193 666.223 574.293C661.023 583.193 653.373 587.643 643.273 587.643C631.773 587.643 623.023 583.943 617.023 576.543C611.023 569.043 608.023 559.543 608.023 548.043C608.023 536.443 611.223 526.893 617.623 519.393C624.123 511.893 633.173 508.143 644.773 508.143C653.673 508.143 660.523 511.693 665.323 518.793V510.393H687.823ZM635.473 525.093C632.673 530.693 631.273 538.293 631.273 547.893C631.273 557.493 632.673 565.093 635.473 570.693C638.273 576.293 642.523 579.093 648.223 579.093C654.023 579.093 658.423 576.293 661.423 570.693C664.523 564.993 666.073 557.393 666.073 547.893C666.073 538.393 664.523 530.843 661.423 525.243C658.423 519.543 654.023 516.693 648.223 516.693C642.523 516.693 638.273 519.493 635.473 525.093ZM709.267 513.093C713.567 511.293 718.167 510.393 723.067 510.393C728.067 510.393 732.167 510.993 735.367 512.193C738.667 513.393 742.067 515.293 745.567 517.893C749.167 514.293 752.817 511.793 756.517 510.393C760.317 508.893 764.767 508.143 769.867 508.143C780.067 508.143 786.867 512.043 790.267 519.843C794.167 515.543 798.067 512.543 801.967 510.843C805.967 509.043 811.117 508.143 817.417 508.143C823.817 508.143 828.967 510.143 832.867 514.143C836.867 518.043 838.867 523.393 838.867 530.193V568.743C838.867 571.443 839.517 573.593 840.817 575.193C842.117 576.693 844.117 577.443 846.817 577.443C849.517 577.443 852.617 575.993 856.117 573.093L858.817 576.693C850.817 583.993 842.817 587.643 834.817 587.643C822.517 587.643 816.367 580.293 816.367 565.593V527.043C816.367 523.943 815.467 521.543 813.667 519.843C811.867 518.143 809.367 517.293 806.167 517.293C803.067 517.293 799.967 518.643 796.867 521.343C793.867 524.043 792.367 527.543 792.367 531.843V585.393H769.867V527.043C769.867 523.943 768.967 521.543 767.167 519.843C765.367 518.143 762.867 517.293 759.667 517.293C756.567 517.293 753.467 518.643 750.367 521.343C747.367 524.043 745.867 527.543 745.867 531.843V585.393H723.367V516.393C718.867 516.393 714.867 517.143 711.367 518.643L709.267 513.093Z" fill="url(#paint1_linear_6_2)"/>
<rect width="755" height="180.045" transform="translate(129 644.786)" fill="black"/>
<path d="M166.172 674.61H166.023C164.75 674.61 163.719 673.578 163.719 672.306C163.719 671.034 164.75 670.002 166.023 670.002H166.172M166.172 683.826H166.023C164.75 683.826 163.719 682.794 163.719 681.522C163.719 680.249 164.75 679.218 166.023 679.218H166.172M166.172 693.042H166.023C164.75 693.042 163.719 692.01 163.719 690.738C163.719 689.465 164.75 688.434 166.023 688.434H166.172M153.906 674.61H153.757C152.485 674.61 151.453 673.578 151.453 672.306C151.453 671.034 152.485 670.002 153.757 670.002H153.906M153.906 683.826H153.757C152.485 683.826 151.453 682.794 151.453 681.522C151.453 680.249 152.485 679.218 153.757 679.218H153.906M153.906 693.042H153.757C152.485 693.042 151.453 692.01 151.453 690.738C151.453 689.465 152.485 688.434 153.757 688.434H153.906M167.399 660.786C166.721 660.786 166.172 661.335 166.172 662.013V664.167C166.172 664.845 165.623 665.394 164.946 665.394C164.268 665.394 163.719 664.845 163.719 664.167V663.09C163.719 661.818 162.687 660.786 161.415 660.786H156.21C154.938 660.786 153.906 661.818 153.906 663.09V664.167C153.906 664.845 153.357 665.394 152.68 665.394C152.002 665.394 151.453 664.845 151.453 664.167V662.013C151.453 661.335 150.904 660.786 150.227 660.786C149.549 660.786 149 661.335 149 662.013V701.031C149 701.709 149.549 702.258 150.227 702.258C150.904 702.258 151.453 701.709 151.453 701.031V698.876C151.453 698.199 152.002 697.65 152.68 697.65C153.357 697.65 153.906 698.199 153.906 698.876V699.954C153.906 701.226 154.938 702.258 156.21 702.258H161.415C162.687 702.258 163.719 701.226 163.719 699.954V698.876C163.719 698.199 164.268 697.65 164.946 697.65C165.623 697.65 166.172 698.199 166.172 698.876V701.031C166.172 701.709 166.721 702.258 167.399 702.258C168.076 702.258 168.625 701.709 168.625 701.031V662.013C168.625 661.335 168.076 660.786 167.399 660.786Z" fill="#FF1FF6"/>
<path d="M166.172 712.842H163.719V708.234H166.172M166.172 722.058H163.719V717.45H166.172M166.172 731.274H163.719V726.666H166.172M153.906 712.842H151.453V708.234H153.906M153.906 722.058H151.453V717.45H153.906M153.906 731.274H151.453V726.666H153.906M166.172 699.018V703.626H163.719V699.018H153.906V703.626H151.453V699.018H149V740.489H151.453V735.882H153.906V740.489H163.719V735.882H166.172V740.489H168.625V699.018H166.172Z" fill="#FF1FF6"/>
<path d="M166.172 751.721H166.023C164.75 751.721 163.719 750.69 163.719 749.417C163.719 748.145 164.75 747.113 166.023 747.113H166.172M166.172 760.937H166.023C164.75 760.937 163.719 759.906 163.719 758.633C163.719 757.361 164.75 756.329 166.023 756.329H166.172M166.172 770.153H166.023C164.75 770.153 163.719 769.122 163.719 767.849C163.719 766.577 164.75 765.545 166.023 765.545H166.172M153.906 751.721H153.757C152.485 751.721 151.453 750.69 151.453 749.417C151.453 748.145 152.485 747.113 153.757 747.113H153.906M153.906 760.937H153.757C152.485 760.937 151.453 759.906 151.453 758.633C151.453 757.361 152.485 756.329 153.757 756.329H153.906M153.906 770.153H153.757C152.485 770.153 151.453 769.122 151.453 767.849C151.453 766.577 152.485 765.545 153.757 765.545H153.906M167.399 737.898C166.721 737.898 166.172 738.447 166.172 739.124V741.279C166.172 741.956 165.623 742.505 164.946 742.505C164.268 742.505 163.719 741.956 163.719 741.279V740.202C163.719 738.929 162.687 737.898 161.415 737.898H156.21C154.938 737.898 153.906 738.929 153.906 740.202V741.279C153.906 741.956 153.357 742.505 152.68 742.505C152.002 742.505 151.453 741.956 151.453 741.279V739.124C151.453 738.447 150.904 737.898 150.227 737.898C149.549 737.898 149 738.447 149 739.124V778.143C149 778.82 149.549 779.369 150.227 779.369C150.904 779.369 151.453 778.82 151.453 778.143V775.988C151.453 775.31 152.002 774.761 152.68 774.761C153.357 774.761 153.906 775.31 153.906 775.988V777.065C153.906 778.338 154.938 779.369 156.21 779.369H161.415C162.687 779.369 163.719 778.338 163.719 777.065V775.988C163.719 775.31 164.268 774.761 164.946 774.761C165.623 774.761 166.172 775.31 166.172 775.988V778.143C166.172 778.82 166.721 779.369 167.399 779.369C168.076 779.369 168.625 778.82 168.625 778.143V739.124C168.625 738.447 168.076 737.898 167.399 737.898Z" fill="#FF1FF6"/>
<path d="M255.547 674.61H255.398C254.125 674.61 253.094 673.578 253.094 672.306C253.094 671.034 254.125 670.002 255.398 670.002H255.547M255.547 683.826H255.398C254.125 683.826 253.094 682.794 253.094 681.522C253.094 680.249 254.125 679.218 255.398 679.218H255.547M255.547 693.042H255.398C254.125 693.042 253.094 692.01 253.094 690.738C253.094 689.465 254.125 688.434 255.398 688.434H255.547M243.281 674.61H243.132C241.859 674.61 240.828 673.578 240.828 672.306C240.828 671.034 241.859 670.002 243.132 670.002H243.281M243.281 683.826H243.132C241.859 683.826 240.828 682.794 240.828 681.522C240.828 680.249 241.859 679.218 243.132 679.218H243.281M243.281 693.042H243.132C241.859 693.042 240.828 692.01 240.828 690.738C240.828 689.465 241.859 688.434 243.132 688.434H243.281M256.773 660.786C256.096 660.786 255.547 661.335 255.547 662.013V664.167C255.547 664.845 254.998 665.394 254.32 665.394C253.643 665.394 253.094 664.845 253.094 664.167V663.09C253.094 661.818 252.062 660.786 250.79 660.786H245.585C244.313 660.786 243.281 661.818 243.281 663.09V664.167C243.281 664.845 242.732 665.394 242.054 665.394C241.377 665.394 240.828 664.845 240.828 664.167V662.013C240.828 661.335 240.279 660.786 239.601 660.786C238.924 660.786 238.375 661.335 238.375 662.013V701.031C238.375 701.709 238.924 702.258 239.601 702.258C240.279 702.258 240.828 701.709 240.828 701.031V698.876C240.828 698.199 241.377 697.65 242.054 697.65C242.732 697.65 243.281 698.199 243.281 698.876V699.954C243.281 701.226 244.313 702.258 245.585 702.258H250.79C252.062 702.258 253.094 701.226 253.094 699.954V698.876C253.094 698.199 253.643 697.65 254.32 697.65C254.998 697.65 255.547 698.199 255.547 698.876V701.031C255.547 701.709 256.096 702.258 256.773 702.258C257.451 702.258 258 701.709 258 701.031V662.013C258 661.335 257.451 660.786 256.773 660.786Z" fill="#FF1FF6"/>
<path d="M255.547 712.91H253.094V708.302H255.547M255.547 722.126H253.094V717.518H255.547M255.547 731.342H253.094V726.734H255.547M243.281 712.91H240.828V708.302H243.281M243.281 722.126H240.828V717.518H243.281M243.281 731.342H240.828V726.734H243.281M255.547 699.086V703.694H253.094V699.086H243.281V703.694H240.828V699.086H238.375V740.558H240.828V735.95H243.281V740.558H253.094V735.95H255.547V740.558H258V699.086H255.547Z" fill="#FF1FF6"/>
<path d="M255.547 751.721H255.398C254.125 751.721 253.094 750.69 253.094 749.417C253.094 748.145 254.125 747.113 255.398 747.113H255.547M255.547 760.937H255.398C254.125 760.937 253.094 759.906 253.094 758.633C253.094 757.361 254.125 756.329 255.398 756.329H255.547M255.547 770.153H255.398C254.125 770.153 253.094 769.122 253.094 767.849C253.094 766.577 254.125 765.545 255.398 765.545H255.547M243.281 751.721H243.132C241.859 751.721 240.828 750.69 240.828 749.417C240.828 748.145 241.859 747.113 243.132 747.113H243.281M243.281 760.937H243.132C241.859 760.937 240.828 759.906 240.828 758.633C240.828 757.361 241.859 756.329 243.132 756.329H243.281M243.281 770.153H243.132C241.859 770.153 240.828 769.122 240.828 767.849C240.828 766.577 241.859 765.545 243.132 765.545H243.281M256.773 737.898C256.096 737.898 255.547 738.447 255.547 739.124V741.279C255.547 741.956 254.998 742.505 254.32 742.505C253.643 742.505 253.094 741.956 253.094 741.279V740.202C253.094 738.929 252.062 737.898 250.79 737.898H245.585C244.313 737.898 243.281 738.929 243.281 740.202V741.279C243.281 741.956 242.732 742.505 242.054 742.505C241.377 742.505 240.828 741.956 240.828 741.279V739.124C240.828 738.447 240.279 737.898 239.601 737.898C238.924 737.898 238.375 738.447 238.375 739.124V778.143C238.375 778.82 238.924 779.369 239.601 779.369C240.279 779.369 240.828 778.82 240.828 778.143V775.988C240.828 775.31 241.377 774.761 242.054 774.761C242.732 774.761 243.281 775.31 243.281 775.988V777.065C243.281 778.338 244.313 779.369 245.585 779.369H250.79C252.062 779.369 253.094 778.338 253.094 777.065V775.988C253.094 775.31 253.643 774.761 254.32 774.761C254.998 774.761 255.547 775.31 255.547 775.988V778.143C255.547 778.82 256.096 779.369 256.773 779.369C257.451 779.369 258 778.82 258 778.143V739.124C258 738.447 257.451 737.898 256.773 737.898Z" fill="#FF1FF6"/>
<path d="M167.491 777.896L196.698 787.605C200.753 788.953 205.134 788.967 209.197 787.644L239.145 777.896" stroke="#FF1FF6" stroke-width="4" stroke-linecap="round"/>
<path d="M150.541 789.681L198.247 806.441C202.643 807.986 207.44 807.947 211.81 806.332L256.866 789.681" stroke="#FF1FF6" stroke-width="4"/>
<path d="M256.866 790.417V772.49V755.063" stroke="#FF1FF6" stroke-width="2" stroke-linecap="round"/>
<path d="M150.541 790.417L150.15 773.61L149.77 757.273" stroke="#FF1FF6" stroke-width="2" stroke-linecap="round"/>
<path d="M307.85 758.936C307.85 762.836 309.75 766.236 313.55 769.136C317.35 772.036 322.25 773.486 328.25 773.486C334.25 773.486 339 772.036 342.5 769.136C346 766.236 347.75 762.386 347.75 757.586C347.75 751.486 344.1 746.436 336.8 742.436L314.6 730.586C301.8 723.686 295.4 713.836 295.4 701.036C295.4 692.836 298.4 685.786 304.4 679.886C310.4 673.986 319.35 671.036 331.25 671.036C339.25 671.036 346.85 672.636 354.05 675.836C361.25 679.036 364.85 682.836 364.85 687.236C364.85 688.936 364.3 690.886 363.2 693.086L356 706.886L350.75 705.236V692.636C350.75 688.136 348.75 684.586 344.75 681.986C340.85 679.386 336.15 678.086 330.65 678.086C325.25 678.086 321.1 679.686 318.2 682.886C315.3 686.086 313.85 689.736 313.85 693.836C313.85 702.036 317.55 708.086 324.95 711.986L344 722.036C358.5 729.636 365.75 739.636 365.75 752.036C365.75 761.436 362.2 768.536 355.1 773.336C348.1 778.136 339.2 780.536 328.4 780.536C320.3 780.536 312.5 778.936 305 775.736C297.5 772.536 293.75 768.736 293.75 764.336C293.75 762.636 294.3 760.686 295.4 758.486L302.6 744.686L307.85 746.336V758.936ZM378.397 711.536V705.386H390.697V683.786H413.197V705.386H430.147V711.536H413.197V761.636C413.197 764.336 413.847 766.486 415.147 768.086C416.447 769.586 418.447 770.336 421.147 770.336C423.847 770.336 426.947 768.886 430.447 765.986L433.147 769.586C425.147 776.886 417.147 780.536 409.147 780.536C396.847 780.536 390.697 773.186 390.697 758.486V711.536H378.397ZM495.071 701.036C498.071 701.036 499.571 703.886 499.571 709.586V761.636C499.571 764.336 500.221 766.486 501.521 768.086C502.821 769.586 504.821 770.336 507.521 770.336C510.221 770.336 513.321 768.886 516.821 765.986L519.521 769.586C511.521 776.886 503.521 780.536 495.521 780.536C483.221 780.536 477.071 773.186 477.071 758.486V716.336C472.371 718.236 466.671 719.536 459.971 720.236C459.171 729.436 456.521 738.636 452.021 747.836L445.871 746.036C448.671 738.936 450.171 730.486 450.371 720.686C446.571 720.686 443.471 719.586 441.071 717.386C438.771 715.186 437.621 712.486 437.621 709.286C437.621 705.986 438.721 703.236 440.921 701.036C443.221 698.736 445.971 697.586 449.171 697.586C452.471 697.586 455.221 698.736 457.421 701.036C459.621 703.336 460.721 706.286 460.721 709.886H463.571C471.471 709.886 479.871 707.686 488.771 703.286C491.671 701.786 493.771 701.036 495.071 701.036ZM557.641 743.636C564.141 743.036 569.141 740.586 572.641 736.286C576.241 731.886 578.041 727.486 578.041 723.086C578.041 718.586 577.041 715.136 575.041 712.736C573.141 710.336 570.191 709.136 566.191 709.136C562.291 709.136 558.541 711.936 554.941 717.536C551.341 723.136 549.541 730.636 549.541 740.036C549.541 749.436 551.241 756.986 554.641 762.686C558.041 768.386 562.891 771.236 569.191 771.236C578.791 771.236 586.941 767.486 593.641 759.986L597.841 762.686C594.441 768.086 589.941 772.436 584.341 775.736C578.741 778.936 572.441 780.536 565.441 780.536C553.541 780.536 544.041 776.636 536.941 768.836C529.841 760.936 526.291 751.436 526.291 740.336C526.291 729.236 530.041 719.936 537.541 712.436C545.141 704.836 555.641 701.036 569.041 701.036C577.841 701.036 584.741 703.086 589.741 707.186C594.741 711.286 597.241 716.486 597.241 722.786C597.241 729.086 594.441 734.936 588.841 740.336C583.341 745.636 576.041 748.286 566.941 748.286C563.841 748.286 560.841 747.936 557.941 747.236L557.641 743.636ZM695.593 703.286V761.636C695.593 764.336 696.243 766.486 697.543 768.086C698.843 769.586 700.843 770.336 703.543 770.336C706.243 770.336 709.343 768.886 712.843 765.986L715.543 769.586C707.543 776.886 699.543 780.536 691.543 780.536C682.043 780.536 676.193 776.086 673.993 767.186C668.793 776.086 661.143 780.536 651.043 780.536C639.543 780.536 630.793 776.836 624.793 769.436C618.793 761.936 615.793 752.436 615.793 740.936C615.793 729.336 618.993 719.786 625.393 712.286C631.893 704.786 640.943 701.036 652.543 701.036C661.443 701.036 668.293 704.586 673.093 711.686V703.286H695.593ZM643.243 717.986C640.443 723.586 639.043 731.186 639.043 740.786C639.043 750.386 640.443 757.986 643.243 763.586C646.043 769.186 650.293 771.986 655.993 771.986C661.793 771.986 666.193 769.186 669.193 763.586C672.293 757.886 673.843 750.286 673.843 740.786C673.843 731.286 672.293 723.736 669.193 718.136C666.193 712.436 661.793 709.586 655.993 709.586C650.293 709.586 646.043 712.386 643.243 717.986ZM717.037 705.986C721.337 704.186 725.937 703.286 730.837 703.286C735.837 703.286 739.937 703.886 743.137 705.086C746.437 706.286 749.837 708.186 753.337 710.786C756.937 707.186 760.587 704.686 764.287 703.286C768.087 701.786 772.537 701.036 777.637 701.036C787.837 701.036 794.637 704.936 798.037 712.736C801.937 708.436 805.837 705.436 809.737 703.736C813.737 701.936 818.887 701.036 825.187 701.036C831.587 701.036 836.737 703.036 840.637 707.036C844.637 710.936 846.637 716.286 846.637 723.086V761.636C846.637 764.336 847.287 766.486 848.587 768.086C849.887 769.586 851.887 770.336 854.587 770.336C857.287 770.336 860.387 768.886 863.887 765.986L866.587 769.586C858.587 776.886 850.587 780.536 842.587 780.536C830.287 780.536 824.137 773.186 824.137 758.486V719.936C824.137 716.836 823.237 714.436 821.437 712.736C819.637 711.036 817.137 710.186 813.937 710.186C810.837 710.186 807.737 711.536 804.637 714.236C801.637 716.936 800.137 720.436 800.137 724.736V778.286H777.637V719.936C777.637 716.836 776.737 714.436 774.937 712.736C773.137 711.036 770.637 710.186 767.437 710.186C764.337 710.186 761.237 711.536 758.137 714.236C755.137 716.936 753.637 720.436 753.637 724.736V778.286H731.137V709.286C726.637 709.286 722.637 710.036 719.137 711.536L717.037 705.986Z" fill="#FF1FF6"/>
<defs>
<linearGradient id="paint0_linear_6_2" x1="198.615" y1="456" x2="198.615" y2="604.786" gradientUnits="userSpaceOnUse">
<stop offset="0.125929"/>
<stop offset="1" stop-color="#DE00C8" stop-opacity="0.5"/>
</linearGradient>
<linearGradient id="paint1_linear_6_2" x1="567.73" y1="424.393" x2="567.73" y2="636.393" gradientUnits="userSpaceOnUse">
<stop offset="0.125929"/>
<stop offset="1" stop-color="#DE00C8" stop-opacity="0.5"/>
</linearGradient>
</defs>
</svg>
